<svg width="24" height="24" viewBox="0 0 24 24" fill="none" xmlns="http://www.w3.org/2000/svg">
<path d="M6.75 22.5C7.78553 22.5 8.625 21.6605 8.625 20.625C8.625 19.5895 7.78553 18.75 6.75 18.75C5.71447 18.75 4.875 19.5895 4.875 20.625C4.875 21.6605 5.71447 22.5 6.75 22.5Z" fill="#5898FF"/>
<path d="M18 22.5C19.0355 22.5 19.875 21.6605 19.875 20.625C19.875 19.5895 19.0355 18.75 18 18.75C16.9645 18.75 16.125 19.5895 16.125 20.625C16.125 21.6605 16.9645 22.5 18 22.5Z" fill="#5898FF"/>
<path d="M3.75 6H20.1014C20.2113 6 20.3198 6.02413 20.4193 6.07068C20.5188 6.11724 20.6068 6.18508 20.6772 6.26941C20.7476 6.35374 20.7986 6.45251 20.8266 6.55872C20.8546 6.66494 20.859 6.77601 20.8393 6.88409L19.2721 15.5091C19.2407 15.6819 19.1496 15.8382 19.0147 15.9508C18.8799 16.0633 18.7098 16.125 18.5341 16.125H6.22398C6.04841 16.125 5.8784 16.0634 5.74357 15.9509C5.60874 15.8385 5.51765 15.6823 5.48615 15.5095L3.18041 2.86545C3.14892 2.69273 3.05782 2.53652 2.92299 2.42406C2.78817 2.3116 2.61816 2.25 2.44258 2.25H1.125" stroke="#5898FF" stroke-width="2.25" stroke-linecap="round" stroke-linejoin="round"/>
</svg>
