<svg width="24" height="24" viewBox="0 0 24 24" fill="none" xmlns="http://www.w3.org/2000/svg">
<path d="M20.2496 5.625L3.74963 5.625" stroke="#5898FF" stroke-width="2.25" stroke-linecap="round" stroke-linejoin="round"/>
<path d="M9.75 9.75V15.75" stroke="#5898FF" stroke-width="2.25" stroke-linecap="round" stroke-linejoin="round"/>
<path d="M14.25 9.75V15.75" stroke="#5898FF" stroke-width="2.25" stroke-linecap="round" stroke-linejoin="round"/>
<path d="M18.7496 5.625V19.5C18.7496 19.6989 18.6706 19.8897 18.53 20.0303C18.3893 20.171 18.1985 20.25 17.9996 20.25H5.99963C5.80072 20.25 5.60996 20.171 5.4693 20.0303C5.32865 19.8897 5.24963 19.6989 5.24963 19.5V5.625" stroke="#5898FF" stroke-width="2.25" stroke-linecap="round" stroke-linejoin="round"/>
<path d="M15.75 5.625V3.375C15.75 2.97718 15.592 2.59564 15.3107 2.31434C15.0294 2.03304 14.6478 1.875 14.25 1.875H9.75C9.35218 1.875 8.97064 2.03304 8.68934 2.31434C8.40804 2.59564 8.25 2.97718 8.25 3.375V5.625" stroke="#5898FF" stroke-width="2.25" stroke-linecap="round" stroke-linejoin="round"/>
</svg>
