<svg width="150" height="170" viewBox="0 0 150 170" fill="none" xmlns="http://www.w3.org/2000/svg">
<rect width="150" height="170" fill="#E5E5E5"/>
<path d="M63 75.2891C60.2656 75.2891 58.1484 76.3203 56.6484 78.3828C55.1484 80.4297 54.3984 83.2891 54.3984 86.9609C54.3984 94.6016 57.2656 98.4219 63 98.4219C65.4062 98.4219 68.3203 97.8203 71.7422 96.6172V102.711C68.9297 103.883 65.7891 104.469 62.3203 104.469C57.3359 104.469 53.5234 102.961 50.8828 99.9453C48.2422 96.9141 46.9219 92.5703 46.9219 86.9141C46.9219 83.3516 47.5703 80.2344 48.8672 77.5625C50.1641 74.875 52.0234 72.8203 54.4453 71.3984C56.8828 69.9609 59.7344 69.2422 63 69.2422C66.3281 69.2422 69.6719 70.0469 73.0312 71.6562L70.6875 77.5625C69.4062 76.9531 68.1172 76.4219 66.8203 75.9688C65.5234 75.5156 64.25 75.2891 63 75.2891ZM102.727 77.75C102.727 79.9531 101.945 81.7734 100.383 83.2109C98.8203 84.6484 96.7031 85.5625 94.0312 85.9531V86.0938C97.1719 86.4062 99.5781 87.2734 101.25 88.6953C102.938 90.1172 103.781 91.9688 103.781 94.25C103.781 97.4062 102.5 99.8984 99.9375 101.727C97.3906 103.555 93.8594 104.469 89.3438 104.469C84.3125 104.469 80.2734 103.852 77.2266 102.617V96.5234C78.6953 97.2266 80.4141 97.7812 82.3828 98.1875C84.3672 98.5781 86.2188 98.7734 87.9375 98.7734C93.7031 98.7734 96.5859 97.0938 96.5859 93.7344C96.5859 92.2188 95.6562 91.0547 93.7969 90.2422C91.9531 89.4297 89.2188 89.0234 85.5938 89.0234H82.3828V83.3516H85.2656C88.8906 83.3516 91.5312 83.0078 93.1875 82.3203C94.8438 81.6328 95.6719 80.4922 95.6719 78.8984C95.6719 77.7266 95.1484 76.7969 94.1016 76.1094C93.0703 75.4062 91.5156 75.0547 89.4375 75.0547C86.2188 75.0547 83.1094 75.9844 80.1094 77.8438L76.9453 72.9922C78.8984 71.6953 80.9688 70.75 83.1562 70.1562C85.3438 69.5469 87.7734 69.2422 90.4453 69.2422C94.1797 69.2422 97.1562 70.0234 99.375 71.5859C101.609 73.1484 102.727 75.2031 102.727 77.75Z" fill="#A2A2A2"/>
</svg>
