<svg width="16" height="16" viewBox="0 0 16 16" fill="none" xmlns="http://www.w3.org/2000/svg">
<path d="M8.25001 13.4995H2.97917C2.85208 13.4995 2.73021 13.449 2.64034 13.3592C2.55048 13.2693 2.5 13.1474 2.5 13.0203V7.7495C2.5 6.9944 2.64873 6.2467 2.93769 5.54908C3.22666 4.85145 3.6502 4.21758 4.18413 3.68364C4.71807 3.14971 5.35194 2.72617 6.04956 2.4372C6.74718 2.14824 7.49489 1.99951 8.24999 1.99951H8.25C9.0051 1.99951 9.75281 2.14824 10.4504 2.4372C11.1481 2.72617 11.7819 3.14971 12.3159 3.68365C12.8498 4.21758 13.2733 4.85146 13.5623 5.54908C13.8513 6.2467 14 6.99441 14 7.74951V7.74952C14 9.27452 13.3942 10.737 12.3159 11.8154C11.2375 12.8937 9.775 13.4995 8.25001 13.4995Z" stroke="#5898FF" stroke-width="1.5" stroke-linecap="round" stroke-linejoin="round"/>
<path d="M8.25 9C8.80228 9 9.25 8.55228 9.25 8C9.25 7.44772 8.80228 7 8.25 7C7.69772 7 7.25 7.44772 7.25 8C7.25 8.55228 7.69772 9 8.25 9Z" fill="#5898FF"/>
<path d="M11.25 9C11.8023 9 12.25 8.55228 12.25 8C12.25 7.44772 11.8023 7 11.25 7C10.6977 7 10.25 7.44772 10.25 8C10.25 8.55228 10.6977 9 11.25 9Z" fill="#5898FF"/>
<path d="M5.25 9C5.80228 9 6.25 8.55228 6.25 8C6.25 7.44772 5.80228 7 5.25 7C4.69772 7 4.25 7.44772 4.25 8C4.25 8.55228 4.69772 9 5.25 9Z" fill="#5898FF"/>
</svg>
