<svg width="16" height="16" viewBox="0 0 16 16" fill="none" xmlns="http://www.w3.org/2000/svg">
<path d="M6.00033 3.99984C6.00033 2.89527 6.89576 1.99984 8.00033 1.99984C9.1049 1.99984 10.0003 2.89527 10.0003 3.99984C10.0003 5.10441 9.1049 5.99984 8.00033 5.99984C6.89576 5.99984 6.00033 5.10441 6.00033 3.99984ZM8.00033 0.666504C6.15938 0.666504 4.66699 2.15889 4.66699 3.99984C4.66699 5.84079 6.15938 7.33317 8.00033 7.33317C9.84127 7.33317 11.3337 5.84079 11.3337 3.99984C11.3337 2.15889 9.84127 0.666504 8.00033 0.666504ZM6.00033 8.6665C4.15938 8.6665 2.66699 10.1589 2.66699 11.9998V13.9998C2.66699 14.368 2.96547 14.6665 3.33366 14.6665C3.70185 14.6665 4.00033 14.368 4.00033 13.9998V11.9998C4.00033 10.8953 4.89576 9.99984 6.00033 9.99984H10.0003C11.1049 9.99984 12.0003 10.8953 12.0003 11.9998V13.9998C12.0003 14.368 12.2988 14.6665 12.667 14.6665C13.0352 14.6665 13.3337 14.368 13.3337 13.9998V11.9998C13.3337 10.1589 11.8413 8.6665 10.0003 8.6665H6.00033Z" fill="#5898FF" stroke="#5898FF" stroke-width="0.355556" stroke-linecap="round" stroke-linejoin="round"/>
</svg>
