<svg width="16" height="16" viewBox="0 0 16 16" fill="none" xmlns="http://www.w3.org/2000/svg">
<path d="M13.501 4.25H2.50098C2.22483 4.25 2.00098 4.47386 2.00098 4.75V12.75C2.00098 13.0261 2.22483 13.25 2.50098 13.25H13.501C13.7771 13.25 14.001 13.0261 14.001 12.75V4.75C14.001 4.47386 13.7771 4.25 13.501 4.25Z" stroke="#5898FF" stroke-width="1.3125" stroke-linecap="round" stroke-linejoin="round"/>
<path d="M10.5 6.25V3C10.5 2.73478 10.3946 2.48043 10.2071 2.29289C10.0196 2.10536 9.76522 2 9.5 2H6.5C6.23478 2 5.98043 2.10536 5.79289 2.29289C5.60536 2.48043 5.5 2.73478 5.5 3V6.25" stroke="#5898FF" stroke-width="1.3125" stroke-linecap="round" stroke-linejoin="round"/>
</svg>
