<svg width="16" height="16" viewBox="0 0 16 16" fill="none" xmlns="http://www.w3.org/2000/svg">
<path d="M13 13.5005V2.50049C13 2.22435 12.7761 2.00049 12.5 2.00049L3.5 2.00049C3.22386 2.00049 3 2.22435 3 2.50049V13.5005C3 13.7766 3.22386 14.0005 3.5 14.0005H12.5C12.7761 14.0005 13 13.7766 13 13.5005Z" stroke="#5898FF" stroke-width="1.5" stroke-linecap="round" stroke-linejoin="round"/>
<path d="M5.75 4.75H10.25" stroke="#5898FF" stroke-width="1.5" stroke-linecap="round" stroke-linejoin="round"/>
<path d="M6.5 9C7.05228 9 7.5 8.55228 7.5 8C7.5 7.44772 7.05228 7 6.5 7C5.94772 7 5.5 7.44772 5.5 8C5.5 8.55228 5.94772 9 6.5 9Z" fill="#5898FF"/>
<path d="M6.5 12C7.05228 12 7.5 11.5523 7.5 11C7.5 10.4477 7.05228 10 6.5 10C5.94772 10 5.5 10.4477 5.5 11C5.5 11.5523 5.94772 12 6.5 12Z" fill="#5898FF"/>
<path d="M9.5 9C10.0523 9 10.5 8.55228 10.5 8C10.5 7.44772 10.0523 7 9.5 7C8.94772 7 8.5 7.44772 8.5 8C8.5 8.55228 8.94772 9 9.5 9Z" fill="#5898FF"/>
<path d="M9.5 12C10.0523 12 10.5 11.5523 10.5 11C10.5 10.4477 10.0523 10 9.5 10C8.94772 10 8.5 10.4477 8.5 11C8.5 11.5523 8.94772 12 9.5 12Z" fill="#5898FF"/>
</svg>
