<svg width="16" height="16" viewBox="0 0 16 16" fill="none" xmlns="http://www.w3.org/2000/svg">
<path d="M2.5 6.66667V3C2.5 2.86739 2.55268 2.74021 2.64645 2.64645C2.74021 2.55268 2.86739 2.5 3 2.5H13C13.1326 2.5 13.2598 2.55268 13.3536 2.64645C13.4473 2.74021 13.5 2.86739 13.5 3V6.66667C13.5 11.9176 9.04337 13.6573 8.15351 13.9523C8.05403 13.9866 7.94597 13.9866 7.84649 13.9523C6.95663 13.6573 2.5 11.9176 2.5 6.66667Z" stroke="#5898FF" stroke-width="1.5" stroke-linecap="round" stroke-linejoin="round"/>
<path d="M8 5.25V7.75" stroke="#5898FF" stroke-width="1.5" stroke-linecap="round" stroke-linejoin="round"/>
<path d="M8 11.25C8.55228 11.25 9 10.8023 9 10.25C9 9.69772 8.55228 9.25 8 9.25C7.44772 9.25 7 9.69772 7 10.25C7 10.8023 7.44772 11.25 8 11.25Z" fill="#5898FF"/>
</svg>
