<svg width="112" height="22" viewBox="0 0 112 22" fill="none" xmlns="http://www.w3.org/2000/svg">
<path d="M5.57294 20.725C3.34375 20.725 1.56643 20.0222 0.240967 18.6164L1.86766 15.9353C2.89189 17.0399 4.03661 17.5922 5.30182 17.5922C6.38629 17.5922 7.23981 17.2607 7.86237 16.598C8.50502 15.9353 8.82635 15.0517 8.82635 13.9471V0.270752H12.3508V14.0073C12.3508 16.2165 11.7283 17.8933 10.4832 19.0381C9.23804 20.1628 7.6013 20.725 5.57294 20.725ZM21.3111 20.725C19.0619 20.725 17.2544 19.992 15.8888 18.5259C14.5232 17.0399 13.8403 15.2223 13.8403 13.0735C13.8403 10.9247 14.5232 9.11721 15.8888 7.65117C17.2544 6.18513 19.0619 5.45211 21.3111 5.45211C23.5806 5.45211 25.398 6.18513 26.7636 7.65117C28.1293 9.11721 28.8121 10.9247 28.8121 13.0735C28.8121 15.2424 28.1293 17.06 26.7636 18.5259C25.398 19.992 23.5806 20.725 21.3111 20.725ZM21.3111 17.9235C22.6165 17.9235 23.6407 17.4616 24.3838 16.5378C25.1469 15.5939 25.5285 14.4392 25.5285 13.0735C25.5285 11.7279 25.1469 10.5933 24.3838 9.66949C23.6407 8.72559 22.6165 8.25365 21.3111 8.25365C20.0259 8.25365 19.0016 8.72559 18.2385 9.66949C17.4954 10.5933 17.1239 11.7279 17.1239 13.0735C17.1239 14.4392 17.4954 15.5939 18.2385 16.5378C19.0016 17.4616 20.0259 17.9235 21.3111 17.9235ZM33.3681 15.9956C33.7095 16.5378 34.2317 16.9997 34.9346 17.3813C35.6575 17.7428 36.3805 17.9235 37.1035 17.9235C38.3487 17.9235 39.3427 17.4817 40.0858 16.598C40.8489 15.6943 41.2305 14.5295 41.2305 13.1036C41.2305 11.6777 40.8489 10.5129 40.0858 9.60923C39.3427 8.70551 38.3487 8.25365 37.1035 8.25365C36.3805 8.25365 35.6676 8.44443 34.9646 8.82601C34.2618 9.20758 33.7296 9.67953 33.3681 10.2418V15.9956ZM33.3681 20.3636H30.205V0.270752H33.3681V7.83191C34.553 6.24537 36.1094 5.45211 38.0373 5.45211C39.9251 5.45211 41.4715 6.155 42.6765 7.56079C43.8815 8.94651 44.4839 10.7941 44.4839 13.1036C44.4839 15.4533 43.8815 17.3109 42.6765 18.6766C41.4715 20.0422 39.9251 20.725 38.0373 20.725C36.1294 20.725 34.573 19.9418 33.3681 18.3753V20.3636ZM52.6191 20.725C50.41 20.725 48.5824 20.0222 47.1365 18.6164C45.7106 17.1905 44.9977 15.3429 44.9977 13.0735C44.9977 10.9448 45.6905 9.14733 47.0762 7.68129C48.482 6.19517 50.2493 5.45211 52.3781 5.45211C54.527 5.45211 56.254 6.19517 57.5594 7.68129C58.8849 9.16741 59.5476 11.0652 59.5476 13.3748V14.1279H48.3113C48.4318 15.2725 48.9038 16.2265 49.7272 16.9896C50.5506 17.7528 51.6249 18.1343 52.9504 18.1343C53.6935 18.1343 54.4366 17.9938 55.1796 17.7126C55.9428 17.4315 56.5753 17.0399 57.0774 16.5378L58.5234 18.6164C57.0574 20.0222 55.0892 20.725 52.6191 20.725ZM56.475 11.8987C56.4348 10.8946 56.0633 10.0008 55.3603 9.21762C54.6776 8.43439 53.6835 8.04278 52.3781 8.04278C51.133 8.04278 50.159 8.43439 49.456 9.21762C48.7532 9.98077 48.3616 10.8744 48.2812 11.8987H56.475ZM64.0253 20.3636H60.8623V5.81359H64.0253V7.95241C64.5876 7.22943 65.2905 6.63699 66.1339 6.17509C66.9775 5.71318 67.8511 5.48222 68.7547 5.48222V8.61514C68.4736 8.55489 68.1423 8.52477 67.7607 8.52477C67.098 8.52477 66.385 8.72559 65.6219 9.12724C64.8788 9.50882 64.3466 9.95064 64.0253 10.4527V20.3636ZM76.2762 20.725C73.6654 20.725 71.5868 19.972 70.0405 18.4658L71.4864 16.1763C72.0287 16.7386 72.7617 17.2206 73.6855 17.6223C74.6093 18.0239 75.5231 18.2248 76.4268 18.2248C77.3506 18.2248 78.0535 18.044 78.5355 17.6825C79.0376 17.321 79.2885 16.8491 79.2885 16.2667C79.2885 15.7445 78.9874 15.3429 78.3849 15.0617C77.7823 14.7605 77.0494 14.5295 76.1858 14.3688C75.3222 14.1881 74.4587 13.9772 73.5952 13.7362C72.7316 13.4751 71.9986 13.0233 71.3961 12.3807C70.7935 11.738 70.4924 10.9045 70.4924 9.88035C70.4924 8.63522 71.0044 7.59092 72.0287 6.74744C73.0529 5.88389 74.4486 5.45211 76.216 5.45211C78.4451 5.45211 80.3329 6.13492 81.8793 7.50055L80.5538 9.72973C80.0919 9.20758 79.4794 8.78584 78.7162 8.46452C77.9531 8.14319 77.1297 7.98253 76.246 7.98253C75.4226 7.98253 74.76 8.15323 74.2578 8.49464C73.7759 8.81597 73.5349 9.23771 73.5349 9.75985C73.5349 10.1615 73.7458 10.4929 74.1675 10.754C74.6093 10.995 75.1516 11.1757 75.7941 11.2962C76.4569 11.4167 77.1698 11.5874 77.933 11.8083C78.6962 12.0092 79.399 12.2501 80.0417 12.5313C80.7044 12.8124 81.2466 13.2744 81.6684 13.917C82.1102 14.5396 82.3312 15.3027 82.3312 16.2064C82.3312 17.5319 81.799 18.6164 80.7346 19.4598C79.6702 20.3033 78.184 20.725 76.2762 20.725Z" fill="#1F2127"/>
<path d="M87.1113 20.0924C86.6896 20.494 86.1975 20.6948 85.6353 20.6948C85.0729 20.6948 84.5808 20.494 84.1591 20.0924C83.7374 19.6706 83.5265 19.1686 83.5265 18.5862C83.5265 18.0038 83.7374 17.5118 84.1591 17.1101C84.5808 16.6884 85.0729 16.4775 85.6353 16.4775C86.1975 16.4775 86.6896 16.6884 87.1113 17.1101C87.533 17.5118 87.7439 18.0038 87.7439 18.5862C87.7439 19.1686 87.533 19.6706 87.1113 20.0924ZM91.8443 20.3635H88.6812V5.81354H91.8443V7.95236C92.4067 7.22938 93.1095 6.63694 93.953 6.17504C94.7964 5.71313 95.67 5.48218 96.5738 5.48218V8.61509C96.2927 8.55485 95.9612 8.52472 95.5797 8.52472C94.917 8.52472 94.2041 8.72555 93.4409 9.1272C92.6979 9.50877 92.1657 9.95059 91.8443 10.4526V20.3635ZM111.506 20.3635H108.343V18.4356C106.977 19.9618 105.26 20.725 103.192 20.725C100.079 20.725 98.5222 19.1886 98.5222 16.116V5.81354H101.685V14.9713C101.685 16.0356 101.936 16.7989 102.438 17.2607C102.94 17.7026 103.663 17.9234 104.607 17.9234C105.371 17.9234 106.083 17.7427 106.746 17.3813C107.409 17.0197 107.941 16.5678 108.343 16.0256V5.81354H111.506V20.3635Z" fill="#0E65F3"/>
</svg>
