<svg width="24" height="24" viewBox="0 0 24 24" fill="none" xmlns="http://www.w3.org/2000/svg">
<path d="M12 18V22.5" stroke="#5898FF" stroke-width="2.25" stroke-linecap="round" stroke-linejoin="round"/>
<path d="M6.79721 6.2771L6.0526 13.7215C6.0426 13.8308 6.00872 13.9365 5.95338 14.0313C5.89803 14.126 5.82257 14.2074 5.7323 14.2698C4.75808 14.9275 4.07962 15.9401 3.84182 17.0912C3.81859 17.2006 3.82004 17.3139 3.84607 17.4227C3.87211 17.5315 3.92208 17.6331 3.99234 17.7202C4.0626 17.8073 4.15139 17.8776 4.25224 17.926C4.3531 17.9744 4.46348 17.9997 4.57536 18.0001H17.4545" stroke="#5898FF" stroke-width="2.25" stroke-linecap="round" stroke-linejoin="round"/>
<path d="M3.14062 2.25L20.8594 21.75" stroke="#5898FF" stroke-width="2.25" stroke-linecap="round" stroke-linejoin="round"/>
<path d="M17.8628 12.876L16.9425 3.67536C16.924 3.49029 16.8374 3.3187 16.6995 3.1939C16.5616 3.06911 16.3822 3 16.1963 3H8.88898" stroke="#5898FF" stroke-width="2.25" stroke-linecap="round" stroke-linejoin="round"/>
</svg>
