<svg width="24" height="24" viewBox="0 0 24 24" fill="none" xmlns="http://www.w3.org/2000/svg">
<path d="M5.17175 4.57825C4.99359 4.40009 4.75196 4.3 4.5 4.3C4.24804 4.3 4.00641 4.40009 3.82825 4.57825C3.65009 4.75641 3.55 4.99804 3.55 5.25V20.25C3.55 20.502 3.65009 20.7436 3.82825 20.9218C4.00641 21.0999 4.24804 21.2 4.5 21.2C4.75196 21.2 4.99359 21.0999 5.17175 20.9218C5.34991 20.7436 5.45 20.502 5.45 20.25V5.25C5.45 4.99804 5.34991 4.75641 5.17175 4.57825Z" fill="#5898FF" stroke="#5898FF" stroke-width="0.4"/>
<path d="M4.49997 18.9066L2.17244 16.5776L2.17239 16.5776C1.99405 16.3992 1.75218 16.2991 1.49997 16.2991C1.24776 16.2991 1.00589 16.3992 0.827549 16.5776C0.649212 16.7559 0.549023 16.9978 0.549023 17.25C0.549023 17.5022 0.649212 17.7441 0.827549 17.9224L3.82737 20.9222C3.8274 20.9223 3.82744 20.9223 3.82747 20.9223C3.9157 21.0108 4.02049 21.0809 4.13587 21.1288C4.25128 21.1767 4.37501 21.2013 4.49997 21.2013C4.62493 21.2013 4.74866 21.1767 4.86407 21.1288C4.97941 21.0809 5.08418 21.0108 5.17239 20.9224L4.49997 18.9066ZM4.49997 18.9066L6.82737 16.5778L4.49997 18.9066ZM7.21252 16.5559L7.13587 16.3712C7.25128 16.3233 7.37501 16.2987 7.49997 16.2987C7.62493 16.2987 7.74866 16.3233 7.86407 16.3712L7.78742 16.5559L7.86408 16.3712C7.97946 16.4191 8.08428 16.4893 8.17251 16.5777C8.26084 16.6659 8.33093 16.7706 8.37877 16.8859C8.42666 17.0013 8.45131 17.125 8.45131 17.25C8.45131 17.375 8.42666 17.4987 8.37877 17.6141C8.33091 17.7294 8.26078 17.8342 8.17239 17.9224L7.21252 16.5559ZM7.21252 16.5559L7.13587 16.3712M7.21252 16.5559L7.13587 16.3712M7.13587 16.3712C7.02051 16.4191 6.91573 16.4892 6.82751 16.5776L7.13587 16.3712ZM5.17257 20.9222L8.17221 17.9226L5.17257 20.9222ZM10.3 9.75C10.3 10.002 10.4001 10.2436 10.5782 10.4218C10.7564 10.5999 10.998 10.7 11.25 10.7H15.75C16.0019 10.7 16.2436 10.5999 16.4217 10.4218C16.5999 10.2436 16.7 10.002 16.7 9.75C16.7 9.49804 16.5999 9.25641 16.4217 9.07825C16.2436 8.90009 16.0019 8.8 15.75 8.8H11.25C10.998 8.8 10.7564 8.90009 10.5782 9.07825C10.4001 9.25641 10.3 9.49804 10.3 9.75ZM10.3 14.25C10.3 14.502 10.4001 14.7436 10.5782 14.9218C10.7564 15.0999 10.998 15.2 11.25 15.2H18.75C19.0019 15.2 19.2436 15.0999 19.4217 14.9218C19.5999 14.7436 19.7 14.502 19.7 14.25C19.7 13.998 19.5999 13.7564 19.4217 13.5782C19.2436 13.4001 19.0019 13.3 18.75 13.3H11.25C10.998 13.3 10.7564 13.4001 10.5782 13.5782C10.4001 13.7564 10.3 13.998 10.3 14.25ZM10.3 18.75C10.3 19.002 10.4001 19.2436 10.5782 19.4218C10.7564 19.5999 10.998 19.7 11.25 19.7H21.75C22.0019 19.7 22.2436 19.5999 22.4217 19.4218C22.5999 19.2436 22.7 19.002 22.7 18.75C22.7 18.498 22.5999 18.2564 22.4217 18.0782C22.2436 17.9001 22.0019 17.8 21.75 17.8H11.25C10.998 17.8 10.7564 17.9001 10.5782 18.0782C10.4001 18.2564 10.3 18.498 10.3 18.75ZM10.3 5.25C10.3 5.50196 10.4001 5.74359 10.5782 5.92175C10.7564 6.09991 10.998 6.2 11.25 6.2H12.75C13.0019 6.2 13.2436 6.09991 13.4217 5.92175C13.5999 5.74359 13.7 5.50196 13.7 5.25C13.7 4.99804 13.5999 4.75641 13.4217 4.57825C13.2436 4.40009 13.0019 4.3 12.75 4.3H11.25C10.998 4.3 10.7564 4.40009 10.5782 4.57825C10.4001 4.75641 10.3 4.99804 10.3 5.25Z" fill="#5898FF" stroke="#5898FF" stroke-width="0.4"/>
</svg>
