<svg width="24" height="24" viewBox="0 0 24 24" fill="none" xmlns="http://www.w3.org/2000/svg">
<path d="M6 1C6.55228 1 7 1.44772 7 2V11.126C8.72523 11.5701 10 13.1362 10 15C10 16.8638 8.72523 18.4299 7 18.874V22C7 22.5523 6.55228 23 6 23C5.44772 23 5 22.5523 5 22V18.874C3.27477 18.4299 2 16.8638 2 15C2 13.1362 3.27477 11.5701 5 11.126V2C5 1.44772 5.44772 1 6 1ZM18 1C18.5523 1 19 1.44772 19 2V5.12602C20.7252 5.57006 22 7.13616 22 9C22 10.8638 20.7252 12.4299 19 12.874V22C19 22.5523 18.5523 23 18 23C17.4477 23 17 22.5523 17 22V12.874C15.2748 12.4299 14 10.8638 14 9C14 7.13616 15.2748 5.57006 17 5.12602V2C17 1.44772 17.4477 1 18 1ZM18 7C16.8954 7 16 7.89543 16 9C16 10.1046 16.8954 11 18 11C19.1046 11 20 10.1046 20 9C20 7.89543 19.1046 7 18 7ZM6 13C4.89543 13 4 13.8954 4 15C4 16.1046 4.89543 17 6 17C7.10457 17 8 16.1046 8 15C8 13.8954 7.10457 13 6 13Z" fill="#5898FF"/>
</svg>
