<svg width="24" height="24" viewBox="0 0 24 24" fill="none" xmlns="http://www.w3.org/2000/svg">
<rect width="24" height="24" fill="white"/>
<path fill-rule="evenodd" clip-rule="evenodd" d="M16.9388 8.97322C17.3678 9.42266 17.3512 10.1348 16.9018 10.5638L11.4018 15.8138C10.967 16.2287 10.2829 16.2287 9.84818 15.8138L7.09821 13.1888C6.64878 12.7598 6.63222 12.0476 7.06123 11.5982C7.49024 11.1488 8.20236 11.1322 8.65179 11.5612L10.625 13.4447L15.3482 8.93622C15.7977 8.50722 16.5098 8.52378 16.9388 8.97322Z" fill="black"/>
<path fill-rule="evenodd" clip-rule="evenodd" d="M4.875 4.875V19.125H19.125V4.875H4.875ZM2.625 4.5C2.625 3.46447 3.46447 2.625 4.5 2.625H19.5C20.5355 2.625 21.375 3.46447 21.375 4.5V19.5C21.375 20.5355 20.5355 21.375 19.5 21.375H4.5C3.46447 21.375 2.625 20.5355 2.625 19.5V4.5Z" fill="black"/>
</svg>
