<svg width="24" height="24" viewBox="0 0 24 24" fill="none" xmlns="http://www.w3.org/2000/svg">
<path d="M20.2507 6.375H3.75073C3.33652 6.375 3.00073 6.71079 3.00073 7.125V19.125C3.00073 19.5392 3.33652 19.875 3.75073 19.875H20.2507C20.6649 19.875 21.0007 19.5392 21.0007 19.125V7.125C21.0007 6.71079 20.6649 6.375 20.2507 6.375Z" stroke="white" stroke-width="1.96875" stroke-linecap="round" stroke-linejoin="round"/>
<path d="M15.75 9.375V4.5C15.75 4.10218 15.592 3.72064 15.3107 3.43934C15.0294 3.15804 14.6478 3 14.25 3H9.75C9.35218 3 8.97064 3.15804 8.68934 3.43934C8.40804 3.72064 8.25 4.10218 8.25 4.5V9.375" stroke="white" stroke-width="1.96875" stroke-linecap="round" stroke-linejoin="round"/>
</svg>
