<svg width="24" height="24" viewBox="0 0 24 24" fill="none" xmlns="http://www.w3.org/2000/svg">
<path d="M20.2507 6.37512H3.75073C3.33652 6.37512 3.00073 6.71091 3.00073 7.12512V19.1251C3.00073 19.5393 3.33652 19.8751 3.75073 19.8751H20.2507C20.6649 19.8751 21.0007 19.5393 21.0007 19.1251V7.12512C21.0007 6.71091 20.6649 6.37512 20.2507 6.37512Z" stroke="#5898FF" stroke-width="1.96875" stroke-linecap="round" stroke-linejoin="round"/>
<path d="M15.75 9.37488V4.49988C15.75 4.10205 15.592 3.72052 15.3107 3.43922C15.0294 3.15791 14.6479 2.99988 14.25 2.99988H9.75003C9.35221 2.99988 8.97068 3.15791 8.68937 3.43922C8.40807 3.72052 8.25003 4.10205 8.25003 4.49988V9.37488" stroke="#5898FF" stroke-width="1.96875" stroke-linecap="round" stroke-linejoin="round"/>
</svg>
