<svg width="24" height="24" viewBox="0 0 24 24" fill="none" xmlns="http://www.w3.org/2000/svg">
<path d="M12 15.75C14.0711 15.75 15.75 14.0711 15.75 12C15.75 9.92893 14.0711 8.25 12 8.25C9.92893 8.25 8.25 9.92893 8.25 12C8.25 14.0711 9.92893 15.75 12 15.75Z" stroke="#5898FF" stroke-width="2.25" stroke-linecap="round" stroke-linejoin="round"/>
<path d="M20.25 4.5H3.75C3.33579 4.5 3 4.83579 3 5.25V18.75C3 19.1642 3.33579 19.5 3.75 19.5H20.25C20.6642 19.5 21 19.1642 21 18.75V5.25C21 4.83579 20.6642 4.5 20.25 4.5Z" stroke="#5898FF" stroke-width="2.25" stroke-linecap="round" stroke-linejoin="round"/>
<path d="M5.95169 19.4999C6.51079 18.3737 7.37319 17.4261 8.44178 16.7635C9.51037 16.101 10.7427 15.75 12 15.75C13.2573 15.75 14.4896 16.101 15.5582 16.7635C16.6268 17.4261 17.4892 18.3737 18.0483 19.4999" stroke="#5898FF" stroke-width="2.25" stroke-linecap="round" stroke-linejoin="round"/>
</svg>
