<svg width="24" height="24" viewBox="0 0 24 24" fill="none" xmlns="http://www.w3.org/2000/svg">
<path d="M8.25 6.375H20.25" stroke="#5898FF" stroke-width="2.25" stroke-linecap="round" stroke-linejoin="round"/>
<path d="M8.25058 12H20.25" stroke="#5898FF" stroke-width="2.25" stroke-linecap="round" stroke-linejoin="round"/>
<path d="M8.25058 17.625H20.25" stroke="#5898FF" stroke-width="2.25" stroke-linecap="round" stroke-linejoin="round"/>
<path d="M4.125 7.875C4.95343 7.875 5.625 7.20343 5.625 6.375C5.625 5.54657 4.95343 4.875 4.125 4.875C3.29657 4.875 2.625 5.54657 2.625 6.375C2.625 7.20343 3.29657 7.875 4.125 7.875Z" fill="#5898FF"/>
<path d="M4.125 13.5C4.95343 13.5 5.625 12.8284 5.625 12C5.625 11.1716 4.95343 10.5 4.125 10.5C3.29657 10.5 2.625 11.1716 2.625 12C2.625 12.8284 3.29657 13.5 4.125 13.5Z" fill="#5898FF"/>
<path d="M4.125 19.125C4.95343 19.125 5.625 18.4534 5.625 17.625C5.625 16.7966 4.95343 16.125 4.125 16.125C3.29657 16.125 2.625 16.7966 2.625 17.625C2.625 18.4534 3.29657 19.125 4.125 19.125Z" fill="#5898FF"/>
</svg>
