<svg width="18" height="18" viewBox="0 0 18 18" fill="none" xmlns="http://www.w3.org/2000/svg">
<path d="M14.625 15.188V2.81299C14.625 2.50233 14.3732 2.25049 14.0625 2.25049L3.9375 2.25049C3.62684 2.25049 3.375 2.50233 3.375 2.81299V15.188C3.375 15.4986 3.62684 15.7505 3.9375 15.7505H14.0625C14.3732 15.7505 14.625 15.4986 14.625 15.188Z" stroke="#5898FF" stroke-width="1.6875" stroke-linecap="round" stroke-linejoin="round"/>
<path d="M6.46875 5.34375H11.5312" stroke="#5898FF" stroke-width="1.6875" stroke-linecap="round" stroke-linejoin="round"/>
<path d="M7.3125 10.125C7.93382 10.125 8.4375 9.62132 8.4375 9C8.4375 8.37868 7.93382 7.875 7.3125 7.875C6.69118 7.875 6.1875 8.37868 6.1875 9C6.1875 9.62132 6.69118 10.125 7.3125 10.125Z" fill="#5898FF"/>
<path d="M7.3125 13.5C7.93382 13.5 8.4375 12.9963 8.4375 12.375C8.4375 11.7537 7.93382 11.25 7.3125 11.25C6.69118 11.25 6.1875 11.7537 6.1875 12.375C6.1875 12.9963 6.69118 13.5 7.3125 13.5Z" fill="#5898FF"/>
<path d="M10.6875 10.125C11.3088 10.125 11.8125 9.62132 11.8125 9C11.8125 8.37868 11.3088 7.875 10.6875 7.875C10.0662 7.875 9.5625 8.37868 9.5625 9C9.5625 9.62132 10.0662 10.125 10.6875 10.125Z" fill="#5898FF"/>
<path d="M10.6875 13.5C11.3088 13.5 11.8125 12.9963 11.8125 12.375C11.8125 11.7537 11.3088 11.25 10.6875 11.25C10.0662 11.25 9.5625 11.7537 9.5625 12.375C9.5625 12.9963 10.0662 13.5 10.6875 13.5Z" fill="#5898FF"/>
</svg>
