<svg width="20" height="20" viewBox="0 0 20 20" fill="none" xmlns="http://www.w3.org/2000/svg">
<g clip-path="url(#clip0_69:521)">
<path d="M17.0118 1.56017C15.786 0.334361 13.7985 0.334363 12.5727 1.56017L1.59658 12.5363C1.29303 12.8399 1.06557 13.2109 0.932779 13.6191L0.14232 16.0491C-0.335285 17.5173 1.05466 18.9073 2.52287 18.4296L4.95283 17.6392C5.36106 17.5064 5.73209 17.2789 6.03564 16.9754L17.0118 5.99923C18.2376 4.77342 18.2376 2.78599 17.0118 1.56017ZM14.0655 3.05296C14.4669 2.65158 15.1176 2.65158 15.519 3.05295C15.9204 3.45433 15.9204 4.10508 15.519 4.50645L4.54285 15.4826C4.47471 15.5508 4.39142 15.6018 4.29978 15.6316L2.28491 16.2871L2.94034 14.2722C2.97015 14.1805 3.02121 14.0973 3.08936 14.0291L14.0655 3.05296ZM9.16665 17.2779C8.58368 17.2779 8.1111 17.7505 8.1111 18.3334C8.1111 18.9164 8.58368 19.389 9.16665 19.389H17.5C18.083 19.389 18.5555 18.9164 18.5555 18.3334C18.5555 17.7505 18.083 17.2779 17.5 17.2779H9.16665Z" fill="#5898FF" stroke="#5898FF" stroke-width="0.444444" stroke-linecap="round"/>
</g>
<defs>
<clipPath id="clip0_69:521">
<rect width="20" height="20" fill="white"/>
</clipPath>
</defs>
</svg>
