<svg width="150" height="170" viewBox="0 0 150 170" fill="none" xmlns="http://www.w3.org/2000/svg">
<rect width="150" height="170" rx="4" fill="#E5E5E5"/>
<path d="M44.3125 69.7344H50.8516V86.2812L50.7578 90.7109L50.5234 95.75H50.6641L66.4844 69.7344H75.1797V104H68.7109V87.5469C68.7109 85.3438 68.8516 82.0781 69.1328 77.75H68.9453L53.0547 104H44.3125V69.7344ZM98.3828 75.2891C95.6484 75.2891 93.5312 76.3203 92.0312 78.3828C90.5312 80.4297 89.7812 83.2891 89.7812 86.9609C89.7812 94.6016 92.6484 98.4219 98.3828 98.4219C100.789 98.4219 103.703 97.8203 107.125 96.6172V102.711C104.312 103.883 101.172 104.469 97.7031 104.469C92.7188 104.469 88.9062 102.961 86.2656 99.9453C83.625 96.9141 82.3047 92.5703 82.3047 86.9141C82.3047 83.3516 82.9531 80.2344 84.25 77.5625C85.5469 74.875 87.4062 72.8203 89.8281 71.3984C92.2656 69.9609 95.1172 69.2422 98.3828 69.2422C101.711 69.2422 105.055 70.0469 108.414 71.6562L106.07 77.5625C104.789 76.9531 103.5 76.4219 102.203 75.9688C100.906 75.5156 99.6328 75.2891 98.3828 75.2891Z" fill="#A1A1A1"/>
</svg>
