<svg width="20" height="20" viewBox="0 0 20 20" fill="none" xmlns="http://www.w3.org/2000/svg">
<path d="M7.3479 12.651L12.6512 7.34766" stroke="#5898FF" stroke-width="1.875" stroke-linecap="round" stroke-linejoin="round"/>
<path d="M11.3253 13.9774L9.11555 16.1871C8.41225 16.8901 7.45849 17.2851 6.46404 17.285C5.46958 17.2849 4.51589 16.8898 3.81271 16.1866C3.10952 15.4834 2.71444 14.5297 2.71436 13.5353C2.71427 12.5408 3.10919 11.5871 3.81225 10.8838L6.02196 8.67407" stroke="#5898FF" stroke-width="1.875" stroke-linecap="round" stroke-linejoin="round"/>
<path d="M13.9772 11.3253L16.187 9.11555C16.89 8.41225 17.2849 7.45849 17.2849 6.46403C17.2848 5.46958 16.8897 4.51589 16.1865 3.81271C15.4833 3.10952 14.5296 2.71444 13.5352 2.71436C12.5407 2.71427 11.587 3.10919 10.8837 3.81225L8.67395 6.02196" stroke="#5898FF" stroke-width="1.875" stroke-linecap="round" stroke-linejoin="round"/>
</svg>
