<svg width="18" height="18" viewBox="0 0 18 18" fill="none" xmlns="http://www.w3.org/2000/svg">
<path d="M10.4062 12.0933L2.8125 12.0933" stroke="#5898FF" stroke-width="1.6875" stroke-linecap="round" stroke-linejoin="round"/>
<path d="M15.1875 12.0933L13.2188 12.0933" stroke="#5898FF" stroke-width="1.6875" stroke-linecap="round" stroke-linejoin="round"/>
<path d="M11.8125 13.4995C12.5892 13.4995 13.2188 12.8699 13.2188 12.0933C13.2188 11.3166 12.5892 10.687 11.8125 10.687C11.0358 10.687 10.4062 11.3166 10.4062 12.0933C10.4062 12.8699 11.0358 13.4995 11.8125 13.4995Z" stroke="#5898FF" stroke-width="1.6875" stroke-linecap="round" stroke-linejoin="round"/>
<path d="M5.90625 5.9058L2.8125 5.90576" stroke="#5898FF" stroke-width="1.6875" stroke-linecap="round" stroke-linejoin="round"/>
<path d="M15.1875 5.90576L8.71875 5.9058" stroke="#5898FF" stroke-width="1.6875" stroke-linecap="round" stroke-linejoin="round"/>
<path d="M7.3125 7.31201C8.08915 7.31201 8.71875 6.68241 8.71875 5.90576C8.71875 5.12911 8.08915 4.49951 7.3125 4.49951C6.53585 4.49951 5.90625 5.12911 5.90625 5.90576C5.90625 6.68241 6.53585 7.31201 7.3125 7.31201Z" stroke="#5898FF" stroke-width="1.6875" stroke-linecap="round" stroke-linejoin="round"/>
</svg>
