<svg width="18" height="18" viewBox="0 0 18 18" fill="none" xmlns="http://www.w3.org/2000/svg">
<rect width="18" height="18" fill="white"/>
<path fill-rule="evenodd" clip-rule="evenodd" d="M12.7041 6.72991C13.0258 7.06699 13.0134 7.60108 12.6763 7.92283L8.55132 11.8603C8.22527 12.1716 7.71218 12.1716 7.38614 11.8603L5.32366 9.89158C4.98658 9.56982 4.97417 9.03573 5.29592 8.69866C5.61768 8.36158 6.15177 8.34917 6.48884 8.67092L7.96873 10.0836L11.5112 6.70217C11.8482 6.38041 12.3823 6.39284 12.7041 6.72991Z" fill="black"/>
<path fill-rule="evenodd" clip-rule="evenodd" d="M3.65625 3.65625V14.3438H14.3438V3.65625H3.65625ZM1.96875 3.375C1.96875 2.59835 2.59835 1.96875 3.375 1.96875H14.625C15.4017 1.96875 16.0312 2.59835 16.0312 3.375V14.625C16.0312 15.4017 15.4017 16.0312 14.625 16.0312H3.375C2.59835 16.0312 1.96875 15.4017 1.96875 14.625V3.375Z" fill="black"/>
</svg>
