<svg width="24" height="24" viewBox="0 0 24 24" fill="none" xmlns="http://www.w3.org/2000/svg">
<g clip-path="url(#clip0_69:464)">
<path d="M8 3C6.34315 3 5 4.34315 5 6C5 7.65685 6.34315 9 8 9C9.65685 9 11 7.65685 11 6C11 4.34315 9.65685 3 8 3ZM3 6C3 3.23858 5.23858 1 8 1C10.7614 1 13 3.23858 13 6C13 8.76142 10.7614 11 8 11C5.23858 11 3 8.76142 3 6ZM0 18C0 15.2386 2.23858 13 5 13H11C13.7614 13 16 15.2386 16 18V21C16 21.5523 15.5523 22 15 22C14.4477 22 14 21.5523 14 21V18C14 16.3431 12.6569 15 11 15H5C3.34315 15 2 16.3431 2 18V21C2 21.5523 1.55228 22 1 22C0.447715 22 0 21.5523 0 21V18ZM20 7C20.5523 7 21 7.44772 21 8V10H23C23.5523 10 24 10.4477 24 11C24 11.5523 23.5523 12 23 12H21V14C21 14.5523 20.5523 15 20 15C19.4477 15 19 14.5523 19 14V12H17C16.4477 12 16 11.5523 16 11C16 10.4477 16.4477 10 17 10H19V8C19 7.44772 19.4477 7 20 7Z" fill="#5898FF"/>
<path fill-rule="evenodd" clip-rule="evenodd" d="M7.99999 1.20005C5.34902 1.20005 3.19999 3.34908 3.19999 6.00005C3.19999 8.65102 5.34902 10.8 7.99999 10.8C10.651 10.8 12.8 8.65102 12.8 6.00005C12.8 3.34908 10.651 1.20005 7.99999 1.20005ZM2.79999 6.00005C2.79999 3.12817 5.12811 0.800049 7.99999 0.800049C10.8719 0.800049 13.2 3.12817 13.2 6.00005C13.2 8.87193 10.8719 11.2 7.99999 11.2C5.12811 11.2 2.79999 8.87193 2.79999 6.00005ZM4.79999 6.00005C4.79999 4.23274 6.23268 2.80005 7.99999 2.80005C9.7673 2.80005 11.2 4.23274 11.2 6.00005C11.2 7.76736 9.7673 9.20005 7.99999 9.20005C6.23268 9.20005 4.79999 7.76736 4.79999 6.00005ZM7.99999 3.20005C6.45359 3.20005 5.19999 4.45365 5.19999 6.00005C5.19999 7.54645 6.45359 8.80005 7.99999 8.80005C9.54638 8.80005 10.8 7.54645 10.8 6.00005C10.8 4.45365 9.54638 3.20005 7.99999 3.20005ZM20 7.20005C19.5582 7.20005 19.2 7.55822 19.2 8.00005V10C19.2 10.1105 19.1104 10.2 19 10.2H17C16.5582 10.2 16.2 10.5582 16.2 11C16.2 11.4419 16.5582 11.8 17 11.8H19C19.1104 11.8 19.2 11.8896 19.2 12V14C19.2 14.4419 19.5582 14.8 20 14.8C20.4418 14.8 20.8 14.4419 20.8 14V12C20.8 11.8896 20.8895 11.8 21 11.8H23C23.4418 11.8 23.8 11.4419 23.8 11C23.8 10.5582 23.4418 10.2 23 10.2H21C20.8895 10.2 20.8 10.1105 20.8 10V8.00005C20.8 7.55822 20.4418 7.20005 20 7.20005ZM18.8 8.00005C18.8 7.33731 19.3372 6.80005 20 6.80005C20.6627 6.80005 21.2 7.33731 21.2 8.00005V9.80005H23C23.6627 9.80005 24.2 10.3373 24.2 11C24.2 11.6628 23.6627 12.2 23 12.2H21.2V14C21.2 14.6628 20.6627 15.2 20 15.2C19.3372 15.2 18.8 14.6628 18.8 14V12.2H17C16.3372 12.2 15.8 11.6628 15.8 11C15.8 10.3373 16.3372 9.80005 17 9.80005H18.8V8.00005ZM4.99999 13.2C2.34902 13.2 0.199988 15.3491 0.199988 18V21C0.199988 21.4419 0.55816 21.8 0.999988 21.8C1.44182 21.8 1.79999 21.4419 1.79999 21V18C1.79999 16.2327 3.23268 14.8 4.99999 14.8H11C12.7673 14.8 14.2 16.2327 14.2 18V21C14.2 21.4419 14.5582 21.8 15 21.8C15.4418 21.8 15.8 21.4419 15.8 21V18C15.8 15.3491 13.651 13.2 11 13.2H4.99999ZM-0.200012 18C-0.200012 15.1282 2.12811 12.8 4.99999 12.8H11C13.8719 12.8 16.2 15.1282 16.2 18V21C16.2 21.6628 15.6627 22.2001 15 22.2001C14.3372 22.2001 13.8 21.6628 13.8 21V18C13.8 16.4537 12.5464 15.2 11 15.2H4.99999C3.45359 15.2 2.19999 16.4537 2.19999 18V21C2.19999 21.6628 1.66273 22.2001 0.999988 22.2001C0.337246 22.2001 -0.200012 21.6628 -0.200012 21V18Z" fill="#5898FF"/>
</g>
<defs>
<clipPath id="clip0_69:464">
<rect width="24" height="24" fill="white"/>
</clipPath>
</defs>
</svg>
