<svg width="24" height="24" viewBox="0 0 24 24" fill="none" xmlns="http://www.w3.org/2000/svg">
<path d="M3.75 10V4.5C3.75 4.30109 3.82902 4.11032 3.96967 3.96967C4.11032 3.82902 4.30109 3.75 4.5 3.75H19.5C19.6989 3.75 19.8897 3.82902 20.0303 3.96967C20.171 4.11032 20.25 4.30109 20.25 4.5V10C20.25 17.8764 13.5651 20.486 12.2303 20.9285C12.0811 20.9798 11.9189 20.9798 11.7697 20.9285C10.4349 20.486 3.75 17.8764 3.75 10Z" stroke="#5898FF" stroke-width="2.25" stroke-linecap="round" stroke-linejoin="round"/>
<path d="M12 7.875V11.625" stroke="#5898FF" stroke-width="2.25" stroke-linecap="round" stroke-linejoin="round"/>
<path d="M12 16.875C12.8284 16.875 13.5 16.2034 13.5 15.375C13.5 14.5466 12.8284 13.875 12 13.875C11.1716 13.875 10.5 14.5466 10.5 15.375C10.5 16.2034 11.1716 16.875 12 16.875Z" fill="#5898FF"/>
</svg>
