<svg width="24" height="24" viewBox="0 0 24 24" fill="none" xmlns="http://www.w3.org/2000/svg">
<path d="M19.5 20.2507V3.75073C19.5 3.33652 19.1642 3.00073 18.75 3.00073L5.24999 3.00073C4.83578 3.00073 4.49999 3.33652 4.49999 3.75073L4.49999 20.2507C4.49999 20.6649 4.83578 21.0007 5.24999 21.0007H18.75C19.1642 21.0007 19.5 20.6649 19.5 20.2507Z" stroke="#5898FF" stroke-width="2.25" stroke-linecap="round" stroke-linejoin="round"/>
<path d="M8.625 7.125H15.375" stroke="#5898FF" stroke-width="2.25" stroke-linecap="round" stroke-linejoin="round"/>
<path d="M9.75 13.5C10.5784 13.5 11.25 12.8284 11.25 12C11.25 11.1716 10.5784 10.5 9.75 10.5C8.92157 10.5 8.25 11.1716 8.25 12C8.25 12.8284 8.92157 13.5 9.75 13.5Z" fill="#5898FF"/>
<path d="M9.75 18C10.5784 18 11.25 17.3284 11.25 16.5C11.25 15.6716 10.5784 15 9.75 15C8.92157 15 8.25 15.6716 8.25 16.5C8.25 17.3284 8.92157 18 9.75 18Z" fill="#5898FF"/>
<path d="M14.25 13.5C15.0784 13.5 15.75 12.8284 15.75 12C15.75 11.1716 15.0784 10.5 14.25 10.5C13.4216 10.5 12.75 11.1716 12.75 12C12.75 12.8284 13.4216 13.5 14.25 13.5Z" fill="#5898FF"/>
<path d="M14.25 18C15.0784 18 15.75 17.3284 15.75 16.5C15.75 15.6716 15.0784 15 14.25 15C13.4216 15 12.75 15.6716 12.75 16.5C12.75 17.3284 13.4216 18 14.25 18Z" fill="#5898FF"/>
</svg>
