<svg width="16" height="16" viewBox="0 0 16 16" fill="none" xmlns="http://www.w3.org/2000/svg">
<path fill-rule="evenodd" clip-rule="evenodd" d="M11.2925 5.98215C11.5785 6.28177 11.5675 6.75652 11.2679 7.04252L7.60117 10.5425C7.31135 10.8192 6.85527 10.8192 6.56545 10.5425L4.73214 8.79252C4.43252 8.50651 4.42148 8.03176 4.70749 7.73214C4.99349 7.43252 5.46824 7.42148 5.76786 7.70749L7.08332 8.96317L10.2321 5.95748C10.5318 5.67148 11.0065 5.68252 11.2925 5.98215Z" fill="white"/>
<path fill-rule="evenodd" clip-rule="evenodd" d="M3.25 3.25V12.75H12.75V3.25H3.25ZM1.75 3C1.75 2.30964 2.30964 1.75 3 1.75H13C13.6904 1.75 14.25 2.30964 14.25 3V13C14.25 13.6904 13.6904 14.25 13 14.25H3C2.30964 14.25 1.75 13.6904 1.75 13V3Z" fill="white"/>
</svg>
