<svg width="24" height="24" viewBox="0 0 24 24" fill="none" xmlns="http://www.w3.org/2000/svg">
<path d="M6.9375 10.125C8.69791 10.125 10.125 8.69791 10.125 6.9375C10.125 5.17709 8.69791 3.75 6.9375 3.75C5.17709 3.75 3.75 5.17709 3.75 6.9375C3.75 8.69791 5.17709 10.125 6.9375 10.125Z" stroke="#5898FF" stroke-width="2.25" stroke-linecap="round" stroke-linejoin="round"/>
<path d="M17.0625 10.125C18.8229 10.125 20.25 8.69791 20.25 6.9375C20.25 5.17709 18.8229 3.75 17.0625 3.75C15.3021 3.75 13.875 5.17709 13.875 6.9375C13.875 8.69791 15.3021 10.125 17.0625 10.125Z" stroke="#5898FF" stroke-width="2.25" stroke-linecap="round" stroke-linejoin="round"/>
<path d="M6.9375 20.25C8.69791 20.25 10.125 18.8229 10.125 17.0625C10.125 15.3021 8.69791 13.875 6.9375 13.875C5.17709 13.875 3.75 15.3021 3.75 17.0625C3.75 18.8229 5.17709 20.25 6.9375 20.25Z" stroke="#5898FF" stroke-width="2.25" stroke-linecap="round" stroke-linejoin="round"/>
<path d="M17.0625 20.25C18.8229 20.25 20.25 18.8229 20.25 17.0625C20.25 15.3021 18.8229 13.875 17.0625 13.875C15.3021 13.875 13.875 15.3021 13.875 17.0625C13.875 18.8229 15.3021 20.25 17.0625 20.25Z" stroke="#5898FF" stroke-width="2.25" stroke-linecap="round" stroke-linejoin="round"/>
</svg>
