<svg width="16" height="16" viewBox="0 0 16 16" fill="none" xmlns="http://www.w3.org/2000/svg">
<path d="M7.33317 12.6667C7.33317 11.9303 6.73622 11.3333 5.99984 11.3333C5.26346 11.3333 4.6665 11.9303 4.6665 12.6667C4.6665 13.403 5.26346 14 5.99984 14C6.73622 14 7.33317 13.403 7.33317 12.6667ZM11.3332 12.6667C11.3332 11.9303 10.7362 11.3333 9.99984 11.3333C9.26346 11.3333 8.6665 11.9303 8.6665 12.6667C8.6665 13.403 9.26346 14 9.99984 14C10.7362 14 11.3332 13.403 11.3332 12.6667ZM5.99984 6.66667C6.73622 6.66667 7.33317 7.26362 7.33317 8C7.33317 8.73638 6.73622 9.33333 5.99984 9.33333C5.26346 9.33333 4.6665 8.73638 4.6665 8C4.6665 7.26362 5.26346 6.66667 5.99984 6.66667ZM11.3332 8C11.3332 7.26362 10.7362 6.66667 9.99984 6.66667C9.26346 6.66667 8.6665 7.26362 8.6665 8C8.6665 8.73638 9.26346 9.33333 9.99984 9.33333C10.7362 9.33333 11.3332 8.73638 11.3332 8ZM5.99984 2C6.73622 2 7.33317 2.59695 7.33317 3.33333C7.33317 4.06971 6.73622 4.66667 5.99984 4.66667C5.26346 4.66667 4.6665 4.06971 4.6665 3.33333C4.6665 2.59695 5.26346 2 5.99984 2ZM11.3332 3.33333C11.3332 2.59695 10.7362 2 9.99984 2C9.26346 2 8.6665 2.59695 8.6665 3.33333C8.6665 4.06971 9.26346 4.66667 9.99984 4.66667C10.7362 4.66667 11.3332 4.06971 11.3332 3.33333Z" fill="#A2A2A2"/>
</svg>
