<svg width="16" height="16" viewBox="0 0 16 16" fill="none" xmlns="http://www.w3.org/2000/svg">
<g clip-path="url(#clip0_177_4386)">
<path d="M13.6094 1.24814C12.6288 0.267488 11.0388 0.26749 10.0582 1.24814L1.27726 10.0291C1.03442 10.2719 0.852459 10.5687 0.746223 10.8953L0.113856 12.8393C-0.268228 14.0138 0.843726 15.1258 2.0183 14.7437L3.96226 14.1114C4.28884 14.0051 4.58567 13.8232 4.82851 13.5803L13.6094 4.79939C14.5901 3.81874 14.5901 2.22879 13.6094 1.24814ZM11.2524 2.44236C11.5735 2.12127 12.0941 2.12127 12.4152 2.44236C12.7363 2.76346 12.7363 3.28406 12.4152 3.60516L3.63428 12.3861C3.57977 12.4406 3.51314 12.4815 3.43982 12.5053L1.82793 13.0296L2.35227 11.4178C2.37612 11.3444 2.41697 11.2778 2.47149 11.2233L11.2524 2.44236ZM7.33332 13.8223C6.86695 13.8223 6.48888 14.2004 6.48888 14.6667C6.48888 15.1331 6.86695 15.5112 7.33332 15.5112H14C14.4664 15.5112 14.8444 15.1331 14.8444 14.6667C14.8444 14.2004 14.4664 13.8223 14 13.8223H7.33332Z" fill="#5898FF" stroke="#5898FF" stroke-width="0.355556" stroke-linecap="round"/>
</g>
<defs>
<clipPath id="clip0_177_4386">
<rect width="16" height="16" fill="white"/>
</clipPath>
</defs>
</svg>
