<svg width="18" height="18" viewBox="0 0 18 18" fill="none" xmlns="http://www.w3.org/2000/svg">
<path d="M9 12.375C10.864 12.375 12.375 10.864 12.375 9C12.375 7.13604 10.864 5.625 9 5.625C7.13604 5.625 5.625 7.13604 5.625 9C5.625 10.864 7.13604 12.375 9 12.375Z" stroke="#5898FF" stroke-width="1.6875" stroke-linecap="round" stroke-linejoin="round"/>
<path d="M15.1876 8.43756L15.9123 7.35051C15.9595 7.28047 15.9907 7.2009 16.0038 7.11744C16.0168 7.03398 16.0113 6.94868 15.9876 6.86759C15.8509 6.41739 15.6707 5.98155 15.4496 5.56623C15.4091 5.4923 15.3527 5.42822 15.2846 5.37858C15.2165 5.32893 15.1382 5.29493 15.0554 5.27902L13.7731 5.02253L12.9776 4.22705L12.7211 2.94464C12.7052 2.86185 12.6712 2.7836 12.6215 2.71546C12.5719 2.64733 12.5078 2.591 12.4339 2.5505C12.0185 2.32941 11.5827 2.14925 11.1325 2.01255C11.0514 1.98888 10.9661 1.98336 10.8826 1.99637C10.7992 2.00938 10.7196 2.04061 10.6496 2.08783L9.56257 2.81249H8.43757L7.35058 2.08783C7.28055 2.04061 7.20098 2.00938 7.11752 1.99637C7.03406 1.98336 6.94876 1.98888 6.86768 2.01255C6.41746 2.14925 5.98161 2.32941 5.56628 2.55049C5.49234 2.591 5.42825 2.64733 5.3786 2.71546C5.32894 2.7836 5.29495 2.86186 5.27904 2.94466L5.02261 4.22698L4.22706 5.02252L2.94473 5.27895C2.86193 5.29486 2.78368 5.32886 2.71555 5.37851C2.64741 5.42816 2.59108 5.49224 2.55058 5.56618C2.32946 5.98151 2.14927 6.41737 2.01254 6.8676C1.98888 6.94868 1.98336 7.03398 1.99638 7.11744C2.00939 7.2009 2.04062 7.28047 2.08784 7.3505L2.8125 8.43749V9.56249L2.08784 10.6495C2.04062 10.7195 2.00939 10.7991 1.99638 10.8825C1.98337 10.966 1.98889 11.0513 2.01255 11.1324C2.14924 11.5826 2.3294 12.0185 2.5505 12.4338C2.591 12.5077 2.64733 12.5718 2.71547 12.6215C2.7836 12.6711 2.86185 12.7051 2.94464 12.721L4.22706 12.9775L5.02254 13.773L5.27897 15.0554C5.29488 15.1382 5.32887 15.2165 5.37852 15.2846C5.42817 15.3527 5.49225 15.4091 5.56618 15.4496C5.9815 15.6707 6.41735 15.8508 6.86756 15.9875C6.94864 16.0112 7.03393 16.0167 7.11739 16.0037C7.20084 15.9907 7.2804 15.9595 7.35043 15.9122L8.4375 15.1876H9.5625L10.6496 15.9123C10.7196 15.9595 10.7992 15.9907 10.8826 16.0037C10.9661 16.0168 11.0514 16.0112 11.1325 15.9876C11.5827 15.8509 12.0185 15.6707 12.4338 15.4496C12.5078 15.4091 12.5718 15.3528 12.6215 15.2847C12.6711 15.2165 12.7051 15.1383 12.721 15.0555L12.9775 13.7731L13.773 12.9775L15.0554 12.7211C15.1382 12.7052 15.2165 12.6712 15.2846 12.6215C15.3527 12.5719 15.4091 12.5078 15.4496 12.4339C15.6707 12.0186 15.8509 11.5827 15.9876 11.1325C16.0112 11.0514 16.0168 10.9661 16.0038 10.8827C15.9907 10.7992 15.9595 10.7196 15.9123 10.6496L15.1876 9.56256V8.43756Z" stroke="#5898FF" stroke-width="1.6875" stroke-linecap="round" stroke-linejoin="round"/>
</svg>
