<svg width="16" height="16" viewBox="0 0 16 16" fill="none" xmlns="http://www.w3.org/2000/svg">
<path d="M13.4995 3.75L2.49951 3.75" stroke="#5898FF" stroke-width="1.5" stroke-linecap="round" stroke-linejoin="round"/>
<path d="M6.5 6.5V10.5" stroke="#5898FF" stroke-width="1.5" stroke-linecap="round" stroke-linejoin="round"/>
<path d="M9.5 6.5V10.5" stroke="#5898FF" stroke-width="1.5" stroke-linecap="round" stroke-linejoin="round"/>
<path d="M12.4995 3.75V13C12.4995 13.1326 12.4468 13.2598 12.3531 13.3536C12.2593 13.4473 12.1321 13.5 11.9995 13.5H3.99951C3.8669 13.5 3.73973 13.4473 3.64596 13.3536C3.55219 13.2598 3.49951 13.1326 3.49951 13V3.75" stroke="#5898FF" stroke-width="1.5" stroke-linecap="round" stroke-linejoin="round"/>
<path d="M10.5 3.75V2.25C10.5 1.98478 10.3946 1.73043 10.2071 1.54289C10.0196 1.35536 9.76522 1.25 9.5 1.25H6.5C6.23478 1.25 5.98043 1.35536 5.79289 1.54289C5.60536 1.73043 5.5 1.98478 5.5 2.25V3.75" stroke="#5898FF" stroke-width="1.5" stroke-linecap="round" stroke-linejoin="round"/>
</svg>
