<svg width="189" height="36" viewBox="0 0 189 36" fill="none" xmlns="http://www.w3.org/2000/svg">
<path d="M9.38305 34.8943C5.62983 34.8943 2.63739 33.711 0.40575 31.3441L3.14458 26.83C4.86905 28.6898 6.79637 29.6197 8.92657 29.6197C10.7525 29.6197 12.1895 29.0617 13.2377 27.9458C14.3197 26.83 14.8607 25.3423 14.8607 23.4825V0.456055H20.7948V23.584C20.7948 27.3035 19.7467 30.1267 17.6503 32.0541C15.5539 33.9477 12.7982 34.8943 9.38305 34.8943ZM35.881 34.8943C32.094 34.8943 29.0508 33.6602 26.7516 31.1918C24.4524 28.6898 23.3026 25.6297 23.3026 22.0117C23.3026 18.3938 24.4524 15.3506 26.7516 12.8823C29.0508 10.4139 32.094 9.17976 35.881 9.17976C39.702 9.17976 42.762 10.4139 45.0612 12.8823C47.3606 15.3506 48.5102 18.3938 48.5102 22.0117C48.5102 25.6634 47.3606 28.7236 45.0612 31.1918C42.762 33.6602 39.702 34.8943 35.881 34.8943ZM35.881 30.1775C38.0789 30.1775 39.8033 29.3999 41.0544 27.8445C42.3392 26.2552 42.9818 24.311 42.9818 22.0117C42.9818 19.7462 42.3392 17.8358 41.0544 16.2805C39.8033 14.6912 38.0789 13.8966 35.881 13.8966C33.7171 13.8966 31.9925 14.6912 30.7076 16.2805C29.4566 17.8358 28.831 19.7462 28.831 22.0117C28.831 24.311 29.4566 26.2552 30.7076 27.8445C31.9925 29.3999 33.7171 30.1775 35.881 30.1775ZM56.1811 26.9315C56.7559 27.8445 57.635 28.6221 58.8185 29.2646C60.0356 29.8732 61.253 30.1775 62.4703 30.1775C64.5667 30.1775 66.2403 29.4337 67.4914 27.9458C68.7763 26.4242 69.4188 24.4631 69.4188 22.0624C69.4188 19.6617 68.7763 17.7006 67.4914 16.179C66.2403 14.6574 64.5667 13.8966 62.4703 13.8966C61.253 13.8966 60.0526 14.2179 58.8691 14.8603C57.6857 15.5028 56.7896 16.2974 56.1811 17.2441V26.9315ZM56.1811 34.2858H50.8555V0.456055H56.1811V13.1866C58.176 10.5154 60.7965 9.17976 64.0424 9.17976C67.2209 9.17976 69.8246 10.3632 71.8532 12.7301C73.8821 15.0632 74.8965 18.1739 74.8965 22.0624C74.8965 26.0185 73.8821 29.1462 71.8532 31.4455C69.8246 33.7447 67.2209 34.8943 64.0424 34.8943C60.8302 34.8943 58.2098 33.5757 56.1811 30.9383V34.2858ZM88.5934 34.8943C84.8739 34.8943 81.797 33.711 79.3625 31.3441C76.9618 28.9434 75.7615 25.8326 75.7615 22.0117C75.7615 18.4276 76.9279 15.4013 79.261 12.933C81.6279 10.4308 84.6034 9.17976 88.1876 9.17976C91.8056 9.17976 94.7134 10.4308 96.9113 12.933C99.143 15.4351 100.259 18.6304 100.259 22.5189V23.787H81.3405C81.5434 25.7142 82.338 27.3203 83.7243 28.6051C85.1107 29.8902 86.9196 30.5325 89.1512 30.5325C90.4023 30.5325 91.6534 30.2959 92.9045 29.8225C94.1894 29.3491 95.2545 28.6898 96.0998 27.8445L98.5344 31.3441C96.066 33.711 92.7523 34.8943 88.5934 34.8943ZM95.0854 20.0337C95.0179 18.3431 94.3923 16.8384 93.2088 15.5197C92.0592 14.201 90.3855 13.5416 88.1876 13.5416C86.0912 13.5416 84.4514 14.201 83.2678 15.5197C82.0844 16.8045 81.4251 18.3091 81.2899 20.0337H95.0854ZM107.798 34.2858H102.472V9.78839H107.798V13.3895C108.745 12.1722 109.928 11.1747 111.348 10.397C112.768 9.61932 114.239 9.23047 115.761 9.23047V14.5053C115.287 14.4038 114.729 14.3531 114.087 14.3531C112.971 14.3531 111.771 14.6912 110.486 15.3675C109.235 16.0099 108.339 16.7538 107.798 17.5991V34.2858ZM128.424 34.8943C124.029 34.8943 120.529 33.6265 117.925 31.0905L120.36 27.2358C121.273 28.1826 122.507 28.9941 124.062 29.6704C125.618 30.3465 127.156 30.6847 128.678 30.6847C130.233 30.6847 131.417 30.3805 132.228 29.7717C133.073 29.1631 133.496 28.3686 133.496 27.388C133.496 26.5087 132.989 25.8326 131.975 25.3591C130.96 24.8521 129.726 24.4631 128.272 24.1926C126.818 23.8883 125.364 23.5333 123.91 23.1275C122.456 22.6879 121.222 21.9271 120.208 20.8453C119.193 19.7632 118.686 18.3599 118.686 16.6355C118.686 14.5391 119.548 12.7808 121.273 11.3607C122.997 9.90674 125.347 9.17976 128.323 9.17976C132.076 9.17976 135.254 10.3294 137.858 12.6287L135.626 16.3819C134.849 15.5028 133.817 14.7927 132.532 14.2517C131.248 13.7107 129.861 13.4402 128.373 13.4402C126.987 13.4402 125.871 13.7276 125.026 14.3024C124.215 14.8434 123.809 15.5535 123.809 16.4326C123.809 17.1089 124.164 17.6668 124.874 18.1063C125.618 18.5121 126.531 18.8164 127.613 19.0194C128.728 19.2222 129.929 19.5097 131.214 19.8815C132.499 20.2197 133.682 20.6253 134.764 21.0988C135.88 21.5721 136.793 22.3499 137.503 23.4319C138.247 24.4801 138.619 25.7649 138.619 27.2865C138.619 29.5182 137.723 31.3441 135.931 32.7642C134.139 34.1843 131.636 34.8943 128.424 34.8943Z" fill="white"/>
<path d="M146.667 33.8293C145.957 34.5055 145.128 34.8436 144.182 34.8436C143.235 34.8436 142.406 34.5055 141.696 33.8293C140.986 33.1192 140.631 32.2739 140.631 31.2933C140.631 30.3127 140.986 29.4844 141.696 28.8081C142.406 28.0981 143.235 27.743 144.182 27.743C145.128 27.743 145.957 28.0981 146.667 28.8081C147.377 29.4844 147.732 30.3127 147.732 31.2933C147.732 32.2739 147.377 33.1192 146.667 33.8293ZM154.636 34.2858H149.31V9.78838H154.636V13.3894C155.583 12.1722 156.766 11.1747 158.186 10.397C159.606 9.61932 161.077 9.23047 162.599 9.23047V14.5053C162.125 14.4038 161.567 14.3531 160.925 14.3531C159.809 14.3531 158.609 14.6912 157.324 15.3675C156.073 16.0099 155.177 16.7538 154.636 17.5991V34.2858ZM187.74 34.2858H182.414V31.0398C180.115 33.6095 177.223 34.8943 173.741 34.8943C168.5 34.8943 165.879 32.3077 165.879 27.1343V9.78838H171.205V25.2071C171.205 26.999 171.627 28.2841 172.473 29.0617C173.318 29.8057 174.535 30.1775 176.124 30.1775C177.41 30.1775 178.61 29.8732 179.726 29.2646C180.842 28.6559 181.737 27.8951 182.414 26.9822V9.78838H187.74V34.2858Z" fill="#0E65F3"/>
</svg>
